# xmcd CD database file
#
# Track frame offsets:
#	150
#	15474
#	31257
#	41571
#	52551
#	66489
#	80245
#	92142
#	118524
#	134323
#	156532
#	171420
#	188887
#	210244
#	224384
#	238114
#	264007
#	298842
#
# Disc length: 4530 seconds
#
# Revision: 0
# Processed by: cddbd v1.5.2PL0 Copyright (c) Steve Scherf et al.
# Submitted via: CDex 1.70beta2
#
DISCID=0211b012
DTITLE=Nick The Nightfly - 100 Hits In Jazz - CD 4
DYEAR=2009
DGENRE=Jazz
TTITLE0=Louis Armstrong - Mack The Knife
TTITLE1=Louis Armstrong - On The Sunny Side Of The Street
TTITLE2=Rosemary Clooney - Botch-A-Me (Ba-Ba-Ba-Baciami Piccina)
TTITLE3=Della Reese - I'm Beginning To See The Light
TTITLE4=Ella Fitzgerald Taking A Chance On Love - I'm In Mood For Love
TTITLE5=Sarah Vaughan - Ain't Misbehavin'
TTITLE6=Sarah Vaughan - Nice Work If You Can Get It
TTITLE7=Paul Desmond - All The Things You Are
TTITLE8=Rosemary Clooney - Tenderly
TTITLE9=Aretha Franklin - Only The Lonely
TTITLE10=Lisa Ekdahl - Lush Life
TTITLE11=Marcus Roberts Trio - Embraceable You
TTITLE12=Miles Davis And John Coltrane - Stella By Starlight
TTITLE13=Coleman Hawkins And his Orchestra - April In Paris
TTITLE14=Coleman Hawkins And his Orchestra - Body And Soul
TTITLE15=Paul Desmond - Autumn Leaves (Le Foglie Morte)
TTITLE16=Bill Evans - Waltz For Debby
TTITLE17=Miles Davis And John Coltrane - Some Day My prince Will Come
EXTD=YEAR: 2009
EXTT0=
EXTT1=
EXTT2=
EXTT3=
EXTT4=
EXTT5=
EXTT6=
EXTT7=
EXTT8=
EXTT9=
EXTT10=
EXTT11=
EXTT12=
EXTT13=
EXTT14=
EXTT15=
EXTT16=
EXTT17=
PLAYORDER=
